<svg xmlns="http://www.w3.org/2000/svg" width="271.689" height="260.152" viewBox="0 0 271.689 260.152"><path d="M271.576 28.11C271.54 11.855 259.461.08 243.214.062 171.385-.02 99.556-.021 27.727.063 12.353.081.144 11.984.112 27.289-.033 95.766-.042 164.243.091 232.72c.032 16.194 11.724 27.4 27.841 27.414 35.914.033 71.829.01 107.744.009 35.675-.001 71.35.025 107.025-.013 16.811-.018 28.833-11.365 28.871-28.025.157-67.998.155-135.997.004-203.995zm-78.242 175.96c-11.021 7.427-23.346 11.198-36.518 11.391-24.887.365-49.783.124-74.673.395-5.616.061-7.468-1.94-7.452-7.531.149-53.376.142-106.752-.005-160.128-.015-5.428 1.501-7.786 7.276-7.693 26.07.419 52.193-1.06 78.2 1.341 15.876 1.465 30.98 5.543 38.92 21.522 7.573 15.24 5.55 40.127-13.129 52.532-1.348.895-2.627 1.893-4.869 3.517 2.237 1.067 3.26 1.681 4.363 2.061 18.21 6.282 28.641 18.679 29.338 38.227.657 18.442-5.711 33.759-21.451 44.366z"/><path d="M156.174 142.25c-5.552-2.127-11.332-1.573-17.033-1.651-19.946-.273-19.946-.209-19.947 19.362v2.153h.049c0 5.502-.014 11.003.006 16.505.01 2.644.78 4.96 3.896 4.947 11.44-.049 23.036.708 33.995-3.427 7.86-2.966 12.293-10.528 12.213-19.336-.083-9.05-4.565-15.252-13.179-18.553zM119.266 91.483c0 4.301-.015 8.603.006 12.904.013 2.685.965 4.863 3.972 4.942 7.619.2 15.332 1.147 22.785-1.131 7.897-2.413 11.764-7.742 12.043-15.872.408-11.923-5.775-18.424-19.321-18.767-24.235-.615-18.927-2.492-19.485 17.924z"/></svg>