<?xml version="1.0" encoding="utf-8"?>
<!-- Generator: Adobe Illustrator 17.0.0, SVG Export Plug-In . SVG Version: 6.00 Build 0)  -->
<!DOCTYPE svg PUBLIC "-//W3C//DTD SVG 1.1//EN" "http://www.w3.org/Graphics/SVG/1.1/DTD/svg11.dtd">
<svg version="1.1" id="Слой_1" xmlns="http://www.w3.org/2000/svg" xmlns:xlink="http://www.w3.org/1999/xlink" x="0px" y="0px"
	 width="271.689px" height="260.152px" viewBox="0 0 271.689 260.152" enable-background="new 0 0 271.689 260.152"
	 xml:space="preserve">
<g>
	<path d="M271.576,28.11c-0.036-16.255-12.115-28.03-28.362-28.048C171.385-0.02,99.556-0.021,27.727,0.063
		C12.353,0.081,0.144,11.984,0.112,27.289C-0.033,95.766-0.042,164.243,0.091,232.72c0.032,16.194,11.724,27.4,27.841,27.414
		c35.914,0.033,71.829,0.01,107.744,0.009c35.675-0.001,71.35,0.025,107.025-0.013c16.811-0.018,28.833-11.365,28.871-28.025
		C271.729,164.107,271.727,96.108,271.576,28.11z M193.334,204.07c-11.021,7.427-23.346,11.198-36.518,11.391
		c-24.887,0.365-49.783,0.124-74.673,0.395c-5.616,0.061-7.468-1.94-7.452-7.531c0.149-53.376,0.142-106.752-0.005-160.128
		c-0.015-5.428,1.501-7.786,7.276-7.693c26.07,0.419,52.193-1.06,78.2,1.341c15.876,1.465,30.98,5.543,38.92,21.522
		c7.573,15.24,5.55,40.127-13.129,52.532c-1.348,0.895-2.627,1.893-4.869,3.517c2.237,1.067,3.26,1.681,4.363,2.061
		c18.21,6.282,28.641,18.679,29.338,38.227C215.442,178.146,209.074,193.463,193.334,204.07z"/>
	<path d="M156.174,142.25c-5.552-2.127-11.332-1.573-17.033-1.651c-19.946-0.273-19.946-0.209-19.947,19.362
		c0,0.718,0,1.435,0,2.153c0.016,0,0.033,0,0.049,0c0,5.502-0.014,11.003,0.006,16.505c0.01,2.644,0.78,4.96,3.896,4.947
		c11.44-0.049,23.036,0.708,33.995-3.427c7.86-2.966,12.293-10.528,12.213-19.336C169.27,151.753,164.788,145.551,156.174,142.25z"
		/>
	<path d="M119.266,91.483c0,4.301-0.015,8.603,0.006,12.904c0.013,2.685,0.965,4.863,3.972,4.942
		c7.619,0.2,15.332,1.147,22.785-1.131c7.897-2.413,11.764-7.742,12.043-15.872c0.408-11.923-5.775-18.424-19.321-18.767
		C114.516,72.944,119.824,71.067,119.266,91.483z"/>
</g>
</svg>
